# xmcd
#
# Track frame offsets:
#	150
#	21962
#	40105
#	59030
#	83570
#	101822
#	124832
#	141697
#	170512
#	186922
#	208610
#	222062
#	240260
#	261615
#	275332
#
# Disc length: 3958 seconds
# Revision: 0
# Processed by: cddbd v1.5.2PL0 Copyright (c) Steve Scherf et al.
# Submitted via: dBpowerAMP V12.0
#
DISCID=e50f740f
DTITLE=Paul Rodgers - Muddy Water Blues-A Tribute To Muddy Waters
DYEAR=1993
DGENRE=Blues
TTITLE0=Muddy Water Blues (Acoustic Version with Buddy Guy)
TTITLE1=Louisiana Blues (with Trevor Rabin)
TTITLE2=I Can't Be Satisfied (with Brian Setzer)
TTITLE3=Rolling Stone (with Jeff Beck)
TTITLE4=Good Morning Little Schoolgirl, Part 1 (with Jeff Beck)
TTITLE5=(I'm Your) Hoochie Coochie Man (with Steve Miller)
TTITLE6=She's Alright (with Trevor Rabin)
TTITLE7=Standing Around Crying (with David Gilmour)
TTITLE8=The Hunter (with Slash)
TTITLE9=She Moves Me (with Gary Moore)
TTITLE10=I'm Ready (with Brian May)
TTITLE11=I Just Want To Make Love To You (with Jeff Beck)
TTITLE12=Born Under A Bad Sign (with Neal Schon)
TTITLE13=Good Morning Little Schoolgirl, Part 2 (with Richie Sambora)
TTITLE14=Muddy Water Blues (Electric Version with Neal Schon)
EXTD=
EXTT0=
EXTT1=
EXTT2=
EXTT3=
EXTT4=
EXTT5=
EXTT6=
EXTT7=
EXTT8=
EXTT9=
EXTT10=
EXTT11=
EXTT12=
EXTT13=
EXTT14=
PLAYORDER=
